#!OML:ASF F:\VICON\USERDATA\INSTALL\rory3\rory3.ASF
:FULLY-SPECIFIED
:DEGREES
77
root 1.11367 17.8193 -17.0261 7.11202 -2.68611 0.652103
lowerback 7.86058 -0.220577 -1.82352
upperback -0.146891 -0.373357 1.92149
thorax -4.54075 -0.121386 3.06848
lowerneck -17.8074 -4.29996 -9.86764
upperneck 15.4773 -4.65678 7.10831
head 8.12893 -2.09904 3.42566
rclavicle -1.23246e-014 2.8625e-014
rhumerus -30.8008 -2.67714 -84.4156
rradius 39.8269
rwrist 7.38891
rhand -12.5535 1.99453
rfingers 7.12502
rthumb 13.5236 -27.5463
lclavicle -1.23246e-014 2.8625e-014
lhumerus -29.3175 4.56448 87.135
lradius 32.9784
lwrist -3.40363
lhand -16.4527 27.728
lfingers 7.12502
lthumb 9.76339 57.4817
rfemur -11.1911 6.10509 18.0161
rtibia 21.6159
rfoot -11.5532 -10.6378
rtoes 3.46247
lfemur -10.3473 -2.15472 -20.2312
ltibia 19.0211
lfoot -12.0389 7.43897
ltoes 0.132778
78
root 1.11856 17.8157 -17.0336 7.18305 -2.59428 0.735755
lowerback 8.11819 -0.240172 -1.8373
upperback -0.231798 -0.404687 1.88374
thorax -4.77259 -0.132542 3.04489
lowerneck -17.5311 -4.27183 -9.84775
upperneck 15.2408 -4.64345 7.12422
head 8.00057 -2.09393 3.42953
rclavicle 6.65929e-015 1.19271e-014
rhumerus -31.0757 -2.12919 -84.6603
rradius 40.5735
rwrist 6.48101
rhand -9.50682 -2.47116
rfingers 7.12502
rthumb 16.4585 -31.793
lclavicle 6.65929e-015 1.19271e-014
lhumerus -29.525 4.59655 87.0749
lradius 33.5841
lwrist -3.94045
lhand -15.099 31.2279
lfingers 7.12502
lthumb 11.0693 60.916
rfemur -11.4252 5.82807 17.8965
rtibia 21.8572
rfoot -11.6529 -10.489
rtoes 3.28604
lfemur -10.6839 -2.16521 -20.3346
ltibia 19.4132
lfoot -12.1726 7.36684
ltoes 0.287753
79
root 1.11793 17.8121 -17.0445 7.29069 -2.38338 0.658555
lowerback 8.37418 -0.268635 -1.78403
upperback -0.292156 -0.436816 1.93999
thorax -4.97791 -0.145241 3.08189
lowerneck -17.2579 -4.24195 -9.8429
upperneck 14.9028 -4.61262 7.10874
head 7.83749 -2.08377 3.42645
rclavicle -1.41137e-014 -7.95139e-016
rhumerus -31.1129 -2.75275 -84.2208
rradius 39.5858
rwrist 5.75204
rhand -12.2548 7.24048
rfingers 7.12502
rthumb 13.8115 -22.281
lclavicle -1.41137e-014 -7.95139e-016
lhumerus -29.8002 4.13888 87.3099
lradius 33.9781
lwrist -3.14306
lhand -16.6729 28.7827
lfingers 7.12502
lthumb 9.55098 58.5462
rfemur -11.7113 5.6661 18.0031
rtibia 22.1483
rfoot -11.7276 -10.5679
rtoes 3.23164
lfemur -11.1347 -2.15932 -20.2075
ltibia 19.8768
lfoot -12.2431 7.15624
ltoes 0.603194
80
root 1.11673 17.8062 -17.0581 7.36145 -2.34751 0.539865
lowerback 8.56947 -0.251534 -1.71781
upperback -0.204103 -0.407379 1.98649
thorax -4.99794 -0.132443 3.09116
lowerneck -17.3607 -4.26954 -9.84647
upperneck 14.8175 -4.6411 7.13903
head 7.83048 -2.09204 3.43203
rclavicle -2.08724e-015 1.15295e-014
rhumerus -30.9254 -2.71527 -84.2108
rradius 39.015
rwrist 4.03119
rhand -15.0418 12.4654
rfingers 7.12502
rthumb 11.1245 -17.2198
lclavicle -2.08724e-015 1.15295e-014
lhumerus -29.7087 3.80448 87.4874
lradius 34.1114
lwrist -2.29425
lhand -18.2219 25.7526
lfingers 7.12502
lthumb 8.05619 55.579
rfemur -12.0412 5.71759 18.1389
rtibia 22.5237
rfoot -11.7765 -10.5838
rtoes 3.65645
lfemur -11.5628 -1.98486 -20.0541
ltibia 20.4099
lfoot -12.351 6.96327
ltoes 0.560453
81
root 1.11707 17.7953 -17.076 7.37791 -2.41491 0.48941
lowerback 8.8093 -0.200492 -1.69266
upperback -0.0990714 -0.339088 1.99603
thorax -5.02773 -0.0999163 3.08027
lowerneck -17.3078 -4.3488 -9.87892
upperneck 14.5629 -4.75228 7.23044
head 7.75035 -2.13757 3.45242
rclavicle -7.65321e-015 -3.97569e-015
rhumerus -30.867 -2.64292 -84.1499
rradius 39.9932
rwrist 5.87497
rhand -12.8304 8.12272
rfingers 7.12502
rthumb 13.2566 -21.4357
lclavicle -7.65321e-015 -3.97569e-015
lhumerus -29.517 3.72557 87.5207
lradius 34.1391
lwrist -1.74199
lhand -18.754 24.439
lfingers 7.12502
lthumb 7.54258 54.2845
rfemur -12.4028 5.71234 18.1799
rtibia 22.9812
rfoot -11.8639 -10.5073
rtoes 3.85518
lfemur -11.9617 -1.8045 -19.999
ltibia 20.9929
lfoot -12.5319 6.87762
ltoes 0.401619
82
root 1.12117 17.7849 -17.0988 7.54347 -2.39906 0.491307
lowerback 9.08176 -0.206406 -1.65108
upperback -0.120253 -0.344466 1.99825
thorax -5.2033 -0.100782 3.06374
lowerneck -17.1942 -4.40118 -9.9414
upperneck 14.2336 -4.81001 7.26161
head 7.62979 -2.16602 3.46406
rclavicle -4.07509e-015 2.10712e-014
rhumerus -31.0452 -1.74096 -84.6071
rradius 39.9279
rwrist 2.07577
rhand -11.4556 8.88613
rfingers 7.12502
rthumb 14.5815 -20.5813
lclavicle -4.07509e-015 2.10712e-014
lhumerus -29.5082 3.66579 87.5422
lradius 34.3548
lwrist -1.33572
lhand -19.1163 23.2285
lfingers 7.12502
lthumb 7.19286 53.0863
rfemur -12.9795 5.52263 18.1417
rtibia 23.5638
rfoot -12.1472 -10.3657
rtoes 3.57741
lfemur -12.5797 -1.8416 -20.0003
ltibia 21.6279
lfoot -12.6394 6.93839
ltoes 0.0369333
